<svg xmlns="http://www.w3.org/2000/svg" xmlns:xlink="http://www.w3.org/1999/xlink" contentStyleType="text/css" data-diagram-type="CLASS" height="694px" preserveAspectRatio="none" style="width:900px;height:694px;background:#FFFFFF;" version="1.1" viewBox="0 0 900 694" width="900px" zoomAndPan="magnify"><defs/><g><!--cluster User Service DB (PostgreSQL)--><g class="cluster" data-entity="User Service DB .PostgreSQL." data-source-line="5" data-uid="ent0002" id="cluster_User Service DB .PostgreSQL."><path d="M8.5,6 L245.7432,6 A3.75,3.75 0 0 1 248.2432,8.5 L255.2432,28.2969 L516.5,28.2969 A2.5,2.5 0 0 1 519,30.7969 L519,435.06 A2.5,2.5 0 0 1 516.5,437.56 L8.5,437.56 A2.5,2.5 0 0 1 6,435.06 L6,8.5 A2.5,2.5 0 0 1 8.5,6" fill="none" style="stroke:#000000;stroke-width:1.5;"/><line style="stroke:#000000;stroke-width:1.5;" x1="6" x2="255.2432" y1="28.2969" y2="28.2969"/><text fill="#000000" font-family="sans-serif" font-size="14" font-weight="bold" lengthAdjust="spacing" textLength="236.2432" x="10" y="20.9951">User Service DB (PostgreSQL)</text></g><!--cluster Device Service DB (PostgreSQL)--><g class="cluster" data-entity="Device Service DB .PostgreSQL." data-source-line="38" data-uid="ent0008" id="cluster_Device Service DB .PostgreSQL."><path d="M545.5,26.29 L799.4775,26.29 A3.75,3.75 0 0 1 801.9775,28.79 L808.9775,48.5869 L882.5,48.5869 A2.5,2.5 0 0 1 885,51.0869 L885,487.95 A2.5,2.5 0 0 1 882.5,490.45 L545.5,490.45 A2.5,2.5 0 0 1 543,487.95 L543,28.79 A2.5,2.5 0 0 1 545.5,26.29" fill="none" style="stroke:#000000;stroke-width:1.5;"/><line style="stroke:#000000;stroke-width:1.5;" x1="543" x2="808.9775" y1="48.5869" y2="48.5869"/><text fill="#000000" font-family="sans-serif" font-size="14" font-weight="bold" lengthAdjust="spacing" textLength="252.9775" x="547" y="41.2851">Device Service DB (PostgreSQL)</text></g><!--cluster Telemetry Service DB (TimescaleDB)--><g class="cluster" data-entity="Telemetry Service DB .TimescaleDB." data-source-line="64" data-uid="ent0012" id="cluster_Telemetry Service DB .TimescaleDB."><path d="M590.5,539.45 L880.6533,539.45 A3.75,3.75 0 0 1 883.1533,541.95 L890.1533,561.7469 L890.5,561.7469 A2.5,2.5 0 0 1 893,564.2469 L893,684.84 A2.5,2.5 0 0 1 890.5,687.34 L590.5,687.34 A2.5,2.5 0 0 1 588,684.84 L588,541.95 A2.5,2.5 0 0 1 590.5,539.45" fill="none" style="stroke:#000000;stroke-width:1.5;"/><line style="stroke:#000000;stroke-width:1.5;" x1="588" x2="890.1533" y1="561.7469" y2="561.7469"/><text fill="#000000" font-family="sans-serif" font-size="14" font-weight="bold" lengthAdjust="spacing" textLength="289.1533" x="592" y="554.4451">Telemetry Service DB (TimescaleDB)</text></g><!--class users--><g class="entity" data-entity="users" data-source-line="6" data-uid="ent0003" id="entity_users"><rect fill="#F1F1F1" height="153.7813" rx="2.5" ry="2.5" style="stroke:#181818;stroke-width:0.5;" width="249.501" x="22.25" y="41"/><ellipse cx="123.1484" cy="57" fill="#FF7700" rx="11" ry="11" style="stroke:#181818;stroke-width:1;"/><path d="M123.9922,63.75 L121.5391,63.75 L121.5391,53.5 L118.3984,53.5 L118.3984,51.3594 L127.1328,51.3594 L127.1328,53.5 L123.9922,53.5 L123.9922,63.75 Z " fill="#000000"/><text fill="#000000" font-family="sans-serif" font-size="14" lengthAdjust="spacing" textLength="39.2041" x="143.6484" y="61.8467">Users</text><line style="stroke:#181818;stroke-width:0.5;" x1="23.25" x2="270.751" y1="73" y2="73"/><ellipse cx="33.25" cy="86.6484" fill="none" rx="3" ry="3" style="stroke:#038048;stroke-width:1;"/><text fill="#000000" font-family="sans-serif" font-size="14" lengthAdjust="spacing" textLength="96.5508" x="42.25" y="89.9951">id: UUID &#171;PK&#187;</text><line style="stroke:#181818;stroke-width:1;" x1="23.25" x2="270.751" y1="97.2969" y2="97.2969"/><ellipse cx="33.25" cy="110.9453" fill="#84BE84" rx="3" ry="3" style="stroke:#038048;stroke-width:1;"/><text fill="#000000" font-family="sans-serif" font-size="14" lengthAdjust="spacing" textLength="223.501" x="42.25" y="114.292">email: VARCHAR(255) &#171;unique&#187;</text><ellipse cx="33.25" cy="127.2422" fill="#84BE84" rx="3" ry="3" style="stroke:#038048;stroke-width:1;"/><text fill="#000000" font-family="sans-serif" font-size="14" lengthAdjust="spacing" textLength="222.6328" x="42.25" y="130.5889">password_hash: VARCHAR(255)</text><ellipse cx="33.25" cy="143.5391" fill="#84BE84" rx="3" ry="3" style="stroke:#038048;stroke-width:1;"/><text fill="#000000" font-family="sans-serif" font-size="14" lengthAdjust="spacing" textLength="183.5859" x="42.25" y="146.8857">full_name: VARCHAR(255)</text><line style="stroke:#181818;stroke-width:1;" x1="23.25" x2="270.751" y1="154.1875" y2="154.1875"/><ellipse cx="33.25" cy="167.8359" fill="none" rx="3" ry="3" style="stroke:#038048;stroke-width:1;"/><text fill="#000000" font-family="sans-serif" font-size="14" lengthAdjust="spacing" textLength="165.0127" x="42.25" y="171.1826">created_at: TIMESTAMP</text><ellipse cx="33.25" cy="184.1328" fill="none" rx="3" ry="3" style="stroke:#038048;stroke-width:1;"/><text fill="#000000" font-family="sans-serif" font-size="14" lengthAdjust="spacing" textLength="169.5928" x="42.25" y="187.4795">updated_at: TIMESTAMP</text></g><!--class houses--><g class="entity" data-entity="houses" data-source-line="17" data-uid="ent0004" id="entity_houses"><rect fill="#F1F1F1" height="137.4844" rx="2.5" ry="2.5" style="stroke:#181818;stroke-width:0.5;" width="195.5928" x="307.2" y="49.14"/><ellipse cx="375.1629" cy="65.14" fill="#FF7700" rx="11" ry="11" style="stroke:#181818;stroke-width:1;"/><path d="M376.0066,71.89 L373.5535,71.89 L373.5535,61.64 L370.4129,61.64 L370.4129,59.4994 L379.1473,59.4994 L379.1473,61.64 L376.0066,61.64 L376.0066,71.89 Z " fill="#000000"/><text fill="#000000" font-family="sans-serif" font-size="14" lengthAdjust="spacing" textLength="51.167" x="395.6629" y="69.9867">Houses</text><line style="stroke:#181818;stroke-width:0.5;" x1="308.2" x2="501.7928" y1="81.14" y2="81.14"/><ellipse cx="318.2" cy="94.7884" fill="none" rx="3" ry="3" style="stroke:#038048;stroke-width:1;"/><text fill="#000000" font-family="sans-serif" font-size="14" lengthAdjust="spacing" textLength="96.5508" x="327.2" y="98.1351">id: UUID &#171;PK&#187;</text><line style="stroke:#181818;stroke-width:1;" x1="308.2" x2="501.7928" y1="105.4369" y2="105.4369"/><ellipse cx="318.2" cy="119.0853" fill="#84BE84" rx="3" ry="3" style="stroke:#038048;stroke-width:1;"/><text fill="#000000" font-family="sans-serif" font-size="14" lengthAdjust="spacing" textLength="155.0049" x="327.2" y="122.432">name: VARCHAR(255)</text><ellipse cx="318.2" cy="135.3822" fill="none" rx="3" ry="3" style="stroke:#038048;stroke-width:1;"/><text fill="#000000" font-family="sans-serif" font-size="14" lengthAdjust="spacing" textLength="100.0166" x="327.2" y="138.7289">address: TEXT</text><line style="stroke:#181818;stroke-width:1;" x1="308.2" x2="501.7928" y1="146.0306" y2="146.0306"/><ellipse cx="318.2" cy="159.6791" fill="none" rx="3" ry="3" style="stroke:#038048;stroke-width:1;"/><text fill="#000000" font-family="sans-serif" font-size="14" lengthAdjust="spacing" textLength="165.0127" x="327.2" y="163.0257">created_at: TIMESTAMP</text><ellipse cx="318.2" cy="175.9759" fill="none" rx="3" ry="3" style="stroke:#038048;stroke-width:1;"/><text fill="#000000" font-family="sans-serif" font-size="14" lengthAdjust="spacing" textLength="169.5928" x="327.2" y="179.3226">updated_at: TIMESTAMP</text></g><!--class user_house_access--><g class="entity" data-entity="user_house_access" data-source-line="27" data-uid="ent0005" id="entity_user_house_access"><rect fill="#F1F1F1" height="96.8906" rx="2.5" ry="2.5" style="stroke:#181818;stroke-width:0.5;" width="171.3799" x="124.31" y="324.67"/><ellipse cx="141.9748" cy="340.67" fill="#FF7700" rx="11" ry="11" style="stroke:#181818;stroke-width:1;"/><path d="M142.8186,347.42 L140.3655,347.42 L140.3655,337.17 L137.2248,337.17 L137.2248,335.0294 L145.9592,335.0294 L145.9592,337.17 L142.8186,337.17 L142.8186,347.42 Z " fill="#000000"/><text fill="#000000" font-family="sans-serif" font-size="14" lengthAdjust="spacing" textLength="133.458" x="156.567" y="345.5167">User-House Access</text><line style="stroke:#181818;stroke-width:0.5;" x1="125.31" x2="294.6899" y1="356.67" y2="356.67"/><ellipse cx="135.31" cy="370.3184" fill="none" rx="3" ry="3" style="stroke:#038048;stroke-width:1;"/><text fill="#000000" font-family="sans-serif" font-size="14" lengthAdjust="spacing" textLength="133.6973" x="144.31" y="373.6651">user_id: UUID &#171;FK&#187;</text><ellipse cx="135.31" cy="386.6153" fill="none" rx="3" ry="3" style="stroke:#038048;stroke-width:1;"/><text fill="#000000" font-family="sans-serif" font-size="14" lengthAdjust="spacing" textLength="145.3799" x="144.31" y="389.962">house_id: UUID &#171;FK&#187;</text><line style="stroke:#181818;stroke-width:1;" x1="125.31" x2="294.6899" y1="397.2638" y2="397.2638"/><ellipse cx="135.31" cy="410.9122" fill="#84BE84" rx="3" ry="3" style="stroke:#038048;stroke-width:1;"/><text fill="#000000" font-family="sans-serif" font-size="14" lengthAdjust="spacing" textLength="133.2188" x="144.31" y="414.2589">role: VARCHAR(50)</text></g><!--class device_types--><g class="entity" data-entity="device_types" data-source-line="39" data-uid="ent0009" id="entity_device_types"><rect fill="#F1F1F1" height="113.1875" rx="2.5" ry="2.5" style="stroke:#181818;stroke-width:0.5;" width="236.957" x="595.52" y="61.29"/><ellipse cx="662.7685" cy="77.29" fill="#FF7700" rx="11" ry="11" style="stroke:#181818;stroke-width:1;"/><path d="M663.6123,84.04 L661.1592,84.04 L661.1592,73.79 L658.0185,73.79 L658.0185,71.6494 L666.7529,71.6494 L666.7529,73.79 L663.6123,73.79 L663.6123,84.04 Z " fill="#000000"/><text fill="#000000" font-family="sans-serif" font-size="14" lengthAdjust="spacing" textLength="93.96" x="683.2685" y="82.1367">Device Types</text><line style="stroke:#181818;stroke-width:0.5;" x1="596.52" x2="831.477" y1="93.29" y2="93.29"/><ellipse cx="606.52" cy="106.9384" fill="none" rx="3" ry="3" style="stroke:#038048;stroke-width:1;"/><text fill="#000000" font-family="sans-serif" font-size="14" lengthAdjust="spacing" textLength="96.5508" x="615.52" y="110.2851">id: UUID &#171;PK&#187;</text><line style="stroke:#181818;stroke-width:1;" x1="596.52" x2="831.477" y1="117.5869" y2="117.5869"/><ellipse cx="606.52" cy="131.2353" fill="#84BE84" rx="3" ry="3" style="stroke:#038048;stroke-width:1;"/><text fill="#000000" font-family="sans-serif" font-size="14" lengthAdjust="spacing" textLength="155.0049" x="615.52" y="134.582">name: VARCHAR(255)</text><ellipse cx="606.52" cy="147.5322" fill="none" rx="3" ry="3" style="stroke:#038048;stroke-width:1;"/><text fill="#000000" font-family="sans-serif" font-size="14" lengthAdjust="spacing" textLength="122.5479" x="615.52" y="150.8789">description: TEXT</text><ellipse cx="606.52" cy="163.8291" fill="#84BE84" rx="3" ry="3" style="stroke:#038048;stroke-width:1;"/><text fill="#000000" font-family="sans-serif" font-size="14" lengthAdjust="spacing" textLength="210.957" x="615.52" y="167.1757">manufacturer: VARCHAR(255)</text></g><!--class devices--><g class="entity" data-entity="devices" data-source-line="47" data-uid="ent0010" id="entity_devices"><rect fill="#F1F1F1" height="202.6719" rx="2.5" ry="2.5" style="stroke:#181818;stroke-width:0.5;" width="310.5527" x="558.72" y="271.78"/><ellipse cx="682.1599" cy="287.78" fill="#FF7700" rx="11" ry="11" style="stroke:#181818;stroke-width:1;"/><path d="M683.0037,294.53 L680.5506,294.53 L680.5506,284.28 L677.4099,284.28 L677.4099,282.1394 L686.1443,282.1394 L686.1443,284.28 L683.0037,284.28 L683.0037,294.53 Z " fill="#000000"/><text fill="#000000" font-family="sans-serif" font-size="14" lengthAdjust="spacing" textLength="55.1729" x="702.6599" y="292.6267">Devices</text><line style="stroke:#181818;stroke-width:0.5;" x1="559.72" x2="868.2727" y1="303.78" y2="303.78"/><ellipse cx="569.72" cy="317.4284" fill="none" rx="3" ry="3" style="stroke:#038048;stroke-width:1;"/><text fill="#000000" font-family="sans-serif" font-size="14" lengthAdjust="spacing" textLength="96.5508" x="578.72" y="320.7751">id: UUID &#171;PK&#187;</text><line style="stroke:#181818;stroke-width:1;" x1="559.72" x2="868.2727" y1="328.0769" y2="328.0769"/><polygon fill="none" points="569.72,336.7253,573.72,340.7253,569.72,344.7253,565.72,340.7253" style="stroke:#B38D22;stroke-width:1;"/><text fill="#000000" font-family="sans-serif" font-size="14" lengthAdjust="spacing" textLength="134.4355" x="578.72" y="345.072">type_id: UUID &#171;FK&#187;</text><polygon fill="none" points="569.72,353.0222,573.72,357.0222,569.72,361.0222,565.72,357.0222" style="stroke:#B38D22;stroke-width:1;"/><text fill="#000000" font-family="sans-serif" font-size="14" lengthAdjust="spacing" textLength="106.5654" x="578.72" y="361.3689">house_id: UUID</text><ellipse cx="569.72" cy="374.3191" fill="#84BE84" rx="3" ry="3" style="stroke:#038048;stroke-width:1;"/><text fill="#000000" font-family="sans-serif" font-size="14" lengthAdjust="spacing" textLength="284.5527" x="578.72" y="377.6657">serial_number: VARCHAR(255) &#171;unique&#187;</text><ellipse cx="569.72" cy="390.6159" fill="#84BE84" rx="3" ry="3" style="stroke:#038048;stroke-width:1;"/><text fill="#000000" font-family="sans-serif" font-size="14" lengthAdjust="spacing" textLength="155.0049" x="578.72" y="393.9626">name: VARCHAR(255)</text><ellipse cx="569.72" cy="406.9128" fill="#84BE84" rx="3" ry="3" style="stroke:#038048;stroke-width:1;"/><text fill="#000000" font-family="sans-serif" font-size="14" lengthAdjust="spacing" textLength="149.4131" x="578.72" y="410.2595">status: VARCHAR(50)</text><ellipse cx="569.72" cy="423.2097" fill="none" rx="3" ry="3" style="stroke:#038048;stroke-width:1;"/><text fill="#000000" font-family="sans-serif" font-size="14" lengthAdjust="spacing" textLength="96.1201" x="578.72" y="426.5564">config: JSONB</text><line style="stroke:#181818;stroke-width:1;" x1="559.72" x2="868.2727" y1="433.8581" y2="433.8581"/><ellipse cx="569.72" cy="447.5066" fill="none" rx="3" ry="3" style="stroke:#038048;stroke-width:1;"/><text fill="#000000" font-family="sans-serif" font-size="14" lengthAdjust="spacing" textLength="165.0127" x="578.72" y="450.8532">created_at: TIMESTAMP</text><ellipse cx="569.72" cy="463.8034" fill="none" rx="3" ry="3" style="stroke:#038048;stroke-width:1;"/><text fill="#000000" font-family="sans-serif" font-size="14" lengthAdjust="spacing" textLength="169.5928" x="578.72" y="467.1501">updated_at: TIMESTAMP</text></g><!--class telemetry--><g class="entity" data-entity="telemetry" data-source-line="65" data-uid="ent0013" id="entity_telemetry"><rect fill="#F1F1F1" height="96.8906" rx="2.5" ry="2.5" style="stroke:#181818;stroke-width:0.5;" width="205.2861" x="611.36" y="574.45"/><ellipse cx="630.3814" cy="590.45" fill="#FF7700" rx="11" ry="11" style="stroke:#181818;stroke-width:1;"/><path d="M631.2252,597.2 L628.7721,597.2 L628.7721,586.95 L625.6314,586.95 L625.6314,584.8094 L634.3658,584.8094 L634.3658,586.95 L631.2252,586.95 L631.2252,597.2 Z " fill="#000000"/><text fill="#000000" font-family="sans-serif" font-size="14" lengthAdjust="spacing" textLength="164.3496" x="645.2751" y="595.2967">Telemetry (Hypertable)</text><line style="stroke:#181818;stroke-width:0.5;" x1="612.36" x2="815.6461" y1="606.45" y2="606.45"/><ellipse cx="622.36" cy="620.0984" fill="none" rx="3" ry="3" style="stroke:#038048;stroke-width:1;"/><text fill="#000000" font-family="sans-serif" font-size="14" lengthAdjust="spacing" textLength="179.2861" x="631.36" y="623.4451">time: TIMESTAMPTZ &#171;PK&#187;</text><ellipse cx="622.36" cy="636.3953" fill="none" rx="3" ry="3" style="stroke:#038048;stroke-width:1;"/><text fill="#000000" font-family="sans-serif" font-size="14" lengthAdjust="spacing" textLength="149.5361" x="631.36" y="639.742">device_id: UUID &#171;PK&#187;</text><line style="stroke:#181818;stroke-width:1;" x1="612.36" x2="815.6461" y1="647.0438" y2="647.0438"/><ellipse cx="622.36" cy="660.6922" fill="none" rx="3" ry="3" style="stroke:#038048;stroke-width:1;"/><text fill="#000000" font-family="sans-serif" font-size="14" lengthAdjust="spacing" textLength="91.5195" x="631.36" y="664.0389">value: JSONB</text></g><!--link users to user_house_access--><g class="link" data-entity-1="users" data-entity-2="user_house_access" data-source-line="35" data-uid="lnk6" id="link_users_user_house_access"><path codeLine="35" d="M165.99,195.21 C176.42,237.15 189.04,287.88 198.09,324.24" fill="none" id="users-user_house_access" style="stroke:#181818;stroke-width:1;"/><text fill="#000000" font-family="sans-serif" font-size="13" lengthAdjust="spacing" textLength="70.916" x="177.61" y="237.8469">has access</text><text fill="#000000" font-family="sans-serif" font-size="13" lengthAdjust="spacing" textLength="8.271" x="159.3371" y="214.837">1</text><text fill="#000000" font-family="sans-serif" font-size="13" lengthAdjust="spacing" textLength="23.0356" x="171.9467" y="313.7404">0..*</text></g><!--link houses to user_house_access--><g class="link" data-entity-1="houses" data-entity-2="user_house_access" data-source-line="36" data-uid="lnk7" id="link_houses_user_house_access"><path codeLine="36" d="M352.49,187.08 C319.1,230.44 276.69,285.51 246.85,324.26" fill="none" id="houses-user_house_access" style="stroke:#181818;stroke-width:1;"/><text fill="#000000" font-family="sans-serif" font-size="13" lengthAdjust="spacing" textLength="94.6499" x="320.18" y="237.8469">is accessed by</text><text fill="#000000" font-family="sans-serif" font-size="13" lengthAdjust="spacing" textLength="8.271" x="338.941" y="206.7034">1</text><text fill="#000000" font-family="sans-serif" font-size="13" lengthAdjust="spacing" textLength="23.0356" x="227.2588" y="313.7631">1..*</text></g><!--link device_types to devices--><g class="link" data-entity-1="device_types" data-entity-2="devices" data-source-line="62" data-uid="lnk11" id="link_device_types_devices"><path codeLine="62" d="M714,174.77 C714,203.17 714,238.57 714,271.51" fill="none" id="device_types-devices" style="stroke:#181818;stroke-width:1;"/><text fill="#000000" font-family="sans-serif" font-size="13" lengthAdjust="spacing" textLength="22.9785" x="715" y="237.8469">has</text><text fill="#000000" font-family="sans-serif" font-size="13" lengthAdjust="spacing" textLength="8.271" x="705.5292" y="194.6921">1</text><text fill="#000000" font-family="sans-serif" font-size="13" lengthAdjust="spacing" textLength="23.0356" x="690.157" y="260.5693">0..*</text></g><!--link houses to devices--><g class="link" data-entity-1="houses" data-entity-2="devices" data-source-line="76" data-uid="lnk14" id="link_houses_devices"><path codeLine="76" d="M488.21,187.08 C519.85,213.01 551.9596,239.3166 586.4996,267.6266" fill="none" id="houses-to-devices" style="stroke:#181818;stroke-width:1;stroke-dasharray:7,7;"/><polygon fill="#181818" points="591.14,271.43,586.715,262.6312,587.273,268.2605,581.6437,268.8185,591.14,271.43" style="stroke:#181818;stroke-width:1;"/><text fill="#000000" font-family="sans-serif" font-size="13" lengthAdjust="spacing" textLength="55.0278" x="551.23" y="237.8469">contains</text></g><!--link devices to telemetry--><g class="link" data-entity-1="devices" data-entity-2="telemetry" data-source-line="78" data-uid="lnk15" id="link_devices_telemetry"><path codeLine="78" d="M714,474.9 C714,509.2 714,539.95 714,568.12" fill="none" id="devices-to-telemetry" style="stroke:#181818;stroke-width:1;stroke-dasharray:7,7;"/><polygon fill="#181818" points="714,574.12,718,565.12,714,569.12,710,565.12,714,574.12" style="stroke:#181818;stroke-width:1;"/><text fill="#000000" font-family="sans-serif" font-size="13" lengthAdjust="spacing" textLength="38.0352" x="715" y="519.5169">sends</text></g><!--SRC=[jLLTRvj047pdLsp8Gqtj82TI5CcA8jarRjnyDYPLqnTqXhKv1GFbZaHMrV_UlGCJ874KHIbFDhUpExipU-m4kE0nWZiSdJkTcAsm5w3mBV0Z9WIe5y04cEgb2SV7q75xi3kP71tr-nQSd1WxPGBdqfswTpf30wmWJXDYfCo_Pqi4yrPW1ZFC7hYFC1v1vpeHSfdXxFkvPS8V0-WfcEKKANe5GfXMUQQUBl1W0BUtqp7LkZwZ_9kJlRrQ4AuOZmRmOtZpvNHuqpauFBGeFe_vxnnhc2waHFqnoG8lP29i0cfHYpoAFDNWbeX6RJz39Z7mc1o0ExrmPkxmuhfsdgV1blE_Hcq6OK9JK4CurJ_UCuLN67U11K66GX07vwVxNpjHQdgw7O_vFjKibTtJdS5Glslrfp6r9YTd3TcARDlE6qraILGRmc7VAWaIHMqpCFTDGe3Pj-tF9ZmZ2mCWRq3nnoXKgJ3xMp5y0y40vklQ5enH-_zDUn3eM4-kK-s44kggln_k1xNp6KybJ-AM9xgmOd6-OBxCCynUID1Gk-3yHFSTJ7T1TRnLtjsM_BNa90HdjAhvQjvc-lB-lpeI8PdCnNFpbDkHn0k-7C2tsTNbwECNY8PQbxzbqtBAXJbhxd8nmXNARDqmcCjNf2wBS3ngEKnkudjrREUKIcQIpIEqMl99hWPMaNL_jNNibjoyDrdoWKKvrcUe6_y4vycI4s78C6BAaYBagO0voaV4MCbSjDyHOV8OgszMGFSthLf4NoTXKG8tHBfRM8OG9nBIS2rqlidLZJFzUWbdpXrPT9vBYCfAXBmNokaqHxMo84F2fsb4fue1wHsWJPc7KDnR9Xb0CXuB4qgdswfg9OqU7taeeMiMMELPUtE7sFP9JSPDCbsWN7HJO1nG-agOea2bMRj4DNZRs2HMHPxY1w0p6ly0]--></g></svg>